<svg width="514" height="142" viewBox="0 0 514 142" fill="none" xmlns="http://www.w3.org/2000/svg">
<path d="M472.837 104.619C473.031 104.619 473.255 104.645 473.579 105.184L473.706 105.395L473.88 105.57C473.951 105.641 473.977 105.687 473.985 105.703C473.992 105.716 473.995 105.723 473.996 105.737C473.999 105.766 474.006 105.947 473.812 106.333C472.674 108.611 471.144 110.817 469.206 112.949C467.124 115.239 465.242 117.537 463.563 119.842C457.96 127.043 452.136 132.141 446.118 135.249C440.202 138.204 434.573 139.639 429.208 139.639C421.141 139.639 414.446 137.113 408.998 132.091L408.476 131.597C402.956 126.066 400.641 119.696 401.395 112.348L401.405 112.246V112.144C401.405 111.431 401.581 111.259 401.587 111.253C401.592 111.249 401.762 111.071 402.478 111.071C402.58 111.071 402.921 111.114 403.521 111.714C403.58 111.773 403.598 111.813 403.609 111.861C403.625 111.924 403.647 112.077 403.589 112.366L403.564 112.484L403.556 112.605C403.094 118.607 405.435 124.341 410.193 129.749L410.222 129.781L410.251 129.811C415.361 135.143 421.833 137.801 429.515 137.801C434.638 137.801 439.982 136.242 445.519 133.261C451.165 130.221 456.689 125.188 462.118 118.297L462.133 118.279L462.146 118.259H462.147L462.148 118.257C462.15 118.256 462.152 118.253 462.154 118.25C462.159 118.243 462.166 118.234 462.176 118.221C462.195 118.196 462.223 118.157 462.262 118.106C462.339 118.004 462.454 117.85 462.607 117.645C462.907 117.246 463.351 116.652 463.941 115.865C465.358 114.246 466.876 112.528 468.494 110.708L468.528 110.668L468.561 110.627C470.223 108.549 471.456 106.779 472.167 105.357C472.381 104.93 472.563 104.749 472.654 104.68C472.718 104.633 472.758 104.619 472.837 104.619ZM471.607 44.0913C472.863 44.0913 473.446 44.3264 473.671 44.4868C473.76 44.5508 473.8 44.6062 473.828 44.6655C473.861 44.7354 473.909 44.8849 473.909 45.1646C473.909 45.4264 473.823 45.786 473.493 46.27C473.471 46.2826 473.45 46.2906 473.427 46.2964C473.364 46.312 473.21 46.3335 472.922 46.2759L472.821 46.2554L472.719 46.2456L472.251 46.2085C467.403 45.9008 462.07 47.9251 456.352 51.8052L456.337 51.814L456.323 51.8237C450.636 55.8256 445.09 60.9608 439.679 67.2046C434.257 73.4604 429.664 80.1403 425.904 87.2427L425.898 87.2524L425.894 87.2622C422.317 94.204 420.448 100.667 420.448 106.613C420.448 109.528 421.009 112.135 422.236 114.344C423.737 117.046 426.526 118.138 429.822 118.138C433.523 118.138 437.339 116.981 441.24 114.814L441.276 114.793L441.312 114.772C445.134 112.436 448.639 109.675 451.822 106.492C454.953 103.361 457.332 100.361 458.89 97.4907C459.21 96.9627 459.433 96.938 459.625 96.938C459.878 96.938 460.273 97.029 460.828 97.7231L460.897 97.8101L460.976 97.8882C460.982 97.8945 460.987 97.9013 460.992 97.9067C460.971 97.9862 460.911 98.1588 460.726 98.437L460.699 98.4771L460.675 98.5181C458.933 101.422 456.377 104.678 452.967 108.292C449.616 111.638 445.874 114.493 441.734 116.859C437.689 119.171 433.726 120.283 429.822 120.283C426.05 120.283 423.277 119.063 421.259 116.746C419.336 114.097 418.304 110.665 418.304 106.306C418.304 100.559 420.03 94.1091 423.623 86.9224C427.229 79.7104 431.842 72.8882 437.47 66.4556C443.316 59.8024 449.336 54.3911 455.523 50.1997C461.697 46.0176 467.04 44.0913 471.607 44.0913ZM463.619 58.5317C464.014 58.5317 464.241 58.6457 464.478 58.9614L464.562 59.0747L464.663 59.1753C464.734 59.2464 464.76 59.292 464.769 59.3081C464.775 59.3212 464.777 59.3296 464.778 59.3433C464.781 59.3742 464.788 59.5544 464.596 59.939C463.318 62.4947 462.344 64.9744 461.689 67.3745L461.667 67.4575L461.651 67.5425C461.223 69.8999 461.005 72.1708 461.005 74.3521C461.005 80.375 463.04 85.2808 467.255 88.7935L467.28 88.8149L467.308 88.8354C471.38 92.0027 476.227 93.5581 481.747 93.5581C486.596 93.558 491.498 92.3444 496.436 89.9829C501.471 87.5746 506.002 83.7739 510.045 78.6665L510.062 78.646L510.077 78.6245C510.419 78.1695 510.594 78.1958 510.628 78.1958C510.718 78.1958 511.104 78.2125 511.729 79.1489L511.777 79.2212L511.831 79.2886C511.957 79.4462 511.994 79.5399 512.004 79.5757C511.994 79.6114 511.957 79.7033 511.833 79.8589C507.283 85.3934 502.295 89.3814 496.881 91.895L496.855 91.9067C491.555 94.459 486.422 95.7026 481.439 95.7026C475.12 95.7026 469.742 93.8012 465.207 90.022C460.791 86.342 458.553 81.3973 458.553 74.9673C458.553 72.6924 458.835 70.3007 459.411 67.7886C460.194 65.0596 461.271 62.215 462.65 59.2544C462.836 58.8882 463.007 58.7287 463.115 58.6567C463.212 58.5922 463.355 58.5317 463.619 58.5317ZM469.457 29.0366C479.446 29.0367 486.015 31.4419 489.766 35.728C493.726 40.254 495.724 45.7164 495.724 52.231C495.724 57.1076 494.846 62.1096 493.068 67.2456C491.292 72.3781 488.825 77.2176 485.665 81.7681C485.33 82.209 485.159 82.1841 485.126 82.1841C484.589 82.184 484.15 82.0096 483.713 81.5112C483.662 81.3963 483.654 81.3063 483.662 81.2163C483.674 81.0892 483.729 80.8632 483.93 80.5278L484.025 80.3774C490.322 71.1373 493.578 62.0517 493.578 53.1528C493.578 46.7849 491.591 41.4508 487.505 37.3413C483.518 32.9108 477.568 30.8745 470.071 30.8745C458.78 30.8745 447.872 35.8808 437.378 45.5356C427.266 54.8219 416.878 66.4438 406.21 80.3823C406.056 80.5259 405.947 80.5972 405.885 80.6284C405.863 80.6392 405.848 80.6442 405.84 80.647C405.772 80.645 405.733 80.6312 405.675 80.5874C405.584 80.5189 405.401 80.3378 405.188 79.9106L405.132 79.7983L405.063 79.6948L404.983 79.5679C404.818 79.2847 404.784 79.089 404.784 78.9614C404.784 78.821 404.825 78.5978 405.038 78.2661C411.954 69.1163 418.863 60.7874 425.765 53.2769C432.62 45.8172 439.64 39.9065 446.821 35.5151C454.115 31.1783 461.651 29.0366 469.457 29.0366Z" stroke="white" stroke-width="4"/>
<path d="M351.525 55.7676C351.778 55.7676 352.173 55.8594 352.729 56.5537C352.808 56.6533 352.83 56.7103 352.835 56.7236C352.838 56.7313 352.837 56.73 352.836 56.7363C352.834 56.7607 352.802 56.9776 352.447 57.4033L352.396 57.4639L352.352 57.5283C348.862 62.4552 344.656 68.5066 339.736 75.6807L339.726 75.6963L339.715 75.7129C334.957 82.9523 330.715 90.4014 326.99 98.0586L326.985 98.0684L326.98 98.0791C323.417 105.626 321.566 112.58 321.566 118.904C321.566 124.844 323.342 129.661 327.165 133.006L327.215 133.05L327.267 133.09C331.192 136.091 336.269 137.495 342.308 137.495C350.029 137.495 358.294 135.459 367.08 131.486L367.081 131.487C376.107 127.499 383.158 122.406 388.118 116.152L388.135 116.132L388.151 116.109C388.388 115.794 388.615 115.681 389.01 115.681C389.101 115.681 389.487 115.698 390.11 116.634L390.158 116.706L390.213 116.773C390.251 116.821 390.276 116.861 390.294 116.89C390.258 116.948 390.189 117.047 390.053 117.183L389.993 117.242L389.938 117.307C384.618 123.613 377.587 128.98 368.791 133.383C359.997 137.58 351.586 139.641 343.537 139.641C336.929 139.641 331.176 137.995 326.209 134.751C321.818 131.756 319.421 126.662 319.421 118.904C319.421 112.724 321.161 105.849 324.759 98.2529L324.764 98.2441L324.768 98.2354C328.411 90.3419 332.661 82.751 337.52 75.4629L337.527 75.4521L337.534 75.4414C342.43 67.8933 346.807 61.4803 350.667 56.1973C350.904 55.8816 351.131 55.7676 351.525 55.7676ZM350.911 34.5684C358.694 34.5684 365.613 35.7653 371.696 38.1201L371.731 38.1338L371.768 38.1465C374.764 39.1765 376.846 40.6385 378.188 42.4414C379.522 44.2351 380.25 46.5338 380.25 49.4668C380.25 53.1048 378.971 57.372 376.203 62.3154L376.192 62.3359L376.181 62.3564C372.552 69.2101 368.32 75.6601 363.482 81.707L363.478 81.7139C358.653 87.7968 354.671 94.5047 351.53 101.832L351.498 101.908L351.472 101.987C351.369 102.295 351.266 102.602 351.164 102.909C351.062 103.216 350.96 103.524 350.857 103.831L350.754 104.139V106.307C350.754 109.37 351.72 112.013 354.152 113.533L354.184 113.553C355.528 114.359 357.012 114.759 358.592 114.759C362.246 114.759 366.333 113.075 370.762 110.122L370.779 110.11C375.371 106.98 379.949 103.336 384.517 99.1836L384.521 99.1807C389.249 94.8633 393.47 90.848 397.183 87.1357L397.202 87.1162L397.221 87.0967C400.91 83.2024 403.529 80.2738 405.028 78.3467L405.039 78.333L405.05 78.3184C405.391 77.8632 405.567 77.8896 405.601 77.8896C405.691 77.8897 406.077 77.9057 406.702 78.8428L406.75 78.915L406.804 78.9824C406.884 79.0827 406.906 79.1405 406.91 79.1533C406.913 79.1605 406.913 79.159 406.912 79.165C406.91 79.1884 406.878 79.4052 406.522 79.832L406.504 79.8545L406.486 79.877C404.317 82.6375 400.202 87.0617 394.071 93.1934C387.975 99.086 381.678 104.57 375.181 109.646C368.792 114.638 363.282 116.904 358.592 116.904C356.243 116.904 354.396 116.365 352.942 115.396L352.931 115.389L352.919 115.382L352.652 115.204C349.944 113.348 348.609 110.768 348.609 107.229C348.609 103.159 349.903 98.6891 352.644 93.7881C355.675 88.5343 358.902 83.6935 362.325 79.2637L362.324 79.2627C365.998 74.5678 368.631 70.7953 370.152 67.9854C371.782 65.3366 373.413 62.6879 375.043 60.0391C376.872 57.0671 377.798 53.8379 377.798 50.3887C377.798 48.3299 377.154 46.3454 375.986 44.4609C374.623 42.0404 371.975 40.2992 368.573 39.0146C364.898 37.4184 359.338 36.7129 352.14 36.7129C350.614 36.7129 348.9 36.8215 347.003 37.0322C345.246 37.2274 343.273 37.3271 341.079 37.3271H340.771C340.066 37.3271 339.891 37.1551 339.882 37.1455C339.877 37.1408 339.699 36.9707 339.699 36.2549C339.699 35.4901 339.876 35.2895 339.877 35.2881C339.88 35.2848 339.883 35.2822 339.889 35.2783C339.895 35.274 339.913 35.2634 339.949 35.25C340.025 35.222 340.184 35.1826 340.465 35.1826H340.589L340.713 35.167C342.26 34.9736 343.918 34.875 345.688 34.875H345.799L345.908 34.8633C347.688 34.6656 349.355 34.5684 350.911 34.5684ZM330.019 45.9365C330.413 45.9366 330.639 46.0496 330.876 46.3652C330.992 46.5194 331.146 46.8083 330.892 47.584C329.951 50.2058 327.316 54.9323 322.809 61.8984C318.335 68.8126 312.936 76.4534 306.608 84.8223C300.317 92.9388 293.727 100.338 286.84 107.022L286.818 107.044C286.554 107.308 286.336 107.38 286.082 107.38C285.818 107.38 285.675 107.319 285.578 107.255C285.469 107.182 285.294 107.019 285.105 106.642L285.05 106.53L284.98 106.427L284.913 106.317C284.858 106.221 284.837 106.158 284.829 106.129C284.828 106.126 284.828 106.123 284.827 106.12C284.848 106.073 284.931 105.926 285.212 105.692L285.27 105.645L285.323 105.592C292.157 98.9654 298.673 91.6212 304.873 83.5615L304.881 83.5518L304.888 83.542C311.044 75.333 316.29 67.8254 320.621 61.0225C325.044 54.3874 327.915 49.5435 329.066 46.627C329.246 46.2833 329.41 46.1314 329.515 46.0615C329.612 45.9969 329.754 45.9365 330.019 45.9365ZM343.229 2C347.227 2 350.501 3.34046 353.184 6.02246L353.206 6.0459L353.229 6.06738C356.082 8.74151 357.514 12.0956 357.514 16.2842C357.514 18.3282 356.824 21.085 355.253 24.6328C355.069 24.9914 354.901 25.1485 354.794 25.2197C354.697 25.2843 354.555 25.3447 354.291 25.3447C353.908 25.3447 353.518 25.224 353.076 24.8291C353.067 24.8018 353.064 24.7723 353.064 24.7334C353.064 24.6192 353.101 24.3648 353.314 23.9375L353.345 23.876L353.371 23.8125C354.455 21.2103 355.062 18.7882 355.062 16.5908C355.061 13.2515 353.971 10.3113 351.783 7.87988C349.543 5.39111 346.638 4.14453 343.229 4.14453C339.519 4.14459 335.804 5.87374 332.126 8.90234L332.081 8.94141C328.484 12.0885 325.267 17.1065 322.348 23.7783L322.335 23.8076L322.323 23.8369C321.138 26.8012 318.827 31.5329 315.348 38.082C311.89 44.5896 307.817 51.6164 303.125 59.1641C298.441 66.6988 293.763 73.6147 289.091 79.9131C288.854 80.2287 288.627 80.3418 288.232 80.3418C288.039 80.3418 287.813 80.3162 287.489 79.7764L287.421 79.6611L287.337 79.5566L287.235 79.4121C287.161 79.2879 287.16 79.22 287.16 79.1924C287.16 79.1318 287.18 78.9364 287.412 78.5762C292.15 72.3906 296.78 65.5991 301.3 58.2031C306.027 50.5984 310.045 43.5943 313.35 37.1934C316.832 30.638 319.223 25.8612 320.488 22.9092L320.494 22.8955L320.5 22.8809C323.708 15.0622 327.418 9.81123 331.502 6.84082L331.525 6.82324L331.548 6.80566C335.838 3.49056 339.719 2.00006 343.229 2Z" stroke="white" stroke-width="4"/>
<mask id="path-3-inside-1_2108_266" fill="white">
<path d="M170.562 120.439C165.646 120.439 162.368 118.493 160.73 114.601C159.296 110.505 158.579 107.125 158.579 104.462C158.579 99.3416 160.32 93.2991 163.802 86.3348C167.284 79.3706 171.791 72.5088 177.321 65.7494C182.851 58.99 188.792 53.3571 195.141 48.8509C201.491 44.3446 207.534 42.0915 213.269 42.0915C216.136 42.0915 217.57 43.1156 217.57 45.1639C217.57 45.9833 217.263 46.8026 216.648 47.6219C216.034 48.2364 215.215 48.4412 214.19 48.2364C209.684 47.8267 204.563 49.6702 198.828 53.7668C193.298 57.6586 187.87 62.7793 182.544 69.1291C177.423 75.274 173.122 81.5213 169.64 87.8711C166.363 94.2208 164.724 99.7512 164.724 104.462C164.724 107.33 165.236 109.686 166.26 111.529C167.284 113.372 168.718 114.294 170.562 114.294C174.044 114.294 178.038 112.246 182.544 108.149C187.255 103.848 192.069 98.5223 196.985 92.1725C201.901 85.6179 206.612 78.8585 211.118 71.8943C215.829 64.7252 219.926 58.2731 223.408 52.5378C227.095 46.5978 229.86 42.1939 231.703 39.3263C235.595 33.591 239.487 29.5968 243.379 27.3437C247.271 24.8857 250.855 23.6567 254.132 23.6567C257.819 23.6567 260.789 24.7833 263.043 27.0364C265.5 29.2896 266.729 32.1572 266.729 35.6393C266.729 38.7118 265.603 41.9891 263.35 45.4712C261.711 47.9292 259.048 52.0258 255.361 57.761C251.674 63.2914 247.885 69.3339 243.993 75.8885C240.102 82.2382 236.824 88.0759 234.161 93.4015C231.294 99.5464 229.86 104.462 229.86 108.149C229.86 112.246 231.908 114.294 236.005 114.294C239.692 114.294 243.788 113.065 248.295 110.607C253.006 108.149 257.717 104.974 262.428 101.083C267.139 97.1909 271.543 93.1967 275.64 89.1001C279.736 84.7986 283.116 80.9068 285.779 77.4247C286.393 76.6054 287.11 76.1957 287.929 76.1957C289.158 76.1957 290.08 76.8102 290.695 78.0392C291.514 79.0634 291.514 80.0875 290.695 81.1117C288.032 85.0034 284.345 89.2025 279.634 93.7087C275.128 98.215 270.212 102.516 264.886 106.613C259.56 110.71 254.235 114.089 248.909 116.752C243.584 119.21 238.873 120.439 234.776 120.439C230.884 120.439 228.017 119.313 226.173 117.059C224.534 114.806 223.715 111.939 223.715 108.457C223.715 104.155 224.944 99.2392 227.402 93.7087C230.065 87.9735 233.342 81.7262 237.234 74.9668C241.331 68.0025 245.325 61.5504 249.216 55.6103C253.313 49.4654 256.386 44.8567 258.434 41.7842C259.868 39.7359 260.585 37.6876 260.585 35.6393C260.585 31.7475 258.536 29.8017 254.44 29.8017C252.187 29.8017 249.421 30.8258 246.144 32.8741C243.072 34.9224 239.897 38.3021 236.619 43.0132C232.113 49.7726 227.095 57.5562 221.564 66.3639C216.239 75.1716 210.811 83.4672 205.28 91.2508C199.75 98.8295 194.015 105.589 188.075 111.529C182.339 117.469 176.502 120.439 170.562 120.439ZM147.211 82.6479C146.187 82.6479 145.367 82.1358 144.753 81.1117C143.934 80.0875 143.934 78.9609 144.753 77.732C148.235 72.816 152.229 67.4904 156.736 61.7552C161.447 55.8151 166.67 50.2847 172.405 45.1639C178.14 39.8383 184.285 35.5369 190.84 32.2596C197.394 28.7775 204.256 27.0364 211.425 27.0364C213.678 27.0364 215.932 27.3437 218.185 27.9582C220.438 28.3678 222.589 28.9823 224.637 29.8017C225.866 30.4162 226.48 31.3379 226.48 32.5669C226.48 33.3862 226.071 34.2055 225.251 35.0248C224.432 35.6393 223.408 35.7417 222.179 35.3321C222.179 35.3321 221.872 35.2297 221.257 35.0248C220.643 34.82 219.823 34.6152 218.799 34.4103C217.775 34.0007 216.648 33.6934 215.419 33.4886C214.19 33.2838 212.859 33.1813 211.425 33.1813C203.027 33.1813 195.039 35.7417 187.46 40.8625C179.881 45.9833 172.815 52.2306 166.26 59.6045C159.91 66.9784 154.38 74.1474 149.669 81.1117C149.054 82.1358 148.235 82.6479 147.211 82.6479ZM224.944 140.103C215.727 140.103 209.07 137.645 204.973 132.729C201.081 127.608 199.135 122.078 199.135 116.138C199.135 111.222 200.364 106.511 202.822 102.004C203.437 100.98 204.359 100.468 205.588 100.468C206.612 100.468 207.431 100.98 208.046 102.004C208.865 102.824 208.967 103.848 208.353 105.077C206.305 108.764 205.28 112.451 205.28 116.138C205.28 120.644 206.817 124.741 209.889 128.427C212.962 132.114 217.98 133.958 224.944 133.958C232.728 133.958 240.102 132.319 247.066 129.042C254.235 125.56 260.994 121.463 267.344 116.752C267.754 116.343 268.368 116.138 269.187 116.138C271.236 116.138 272.26 117.162 272.26 119.21C272.26 120.234 271.85 121.054 271.031 121.668C264.476 126.584 257.41 130.885 249.831 134.572C242.252 138.259 233.957 140.103 224.944 140.103ZM166.26 139.796C159.501 139.796 153.458 137.542 148.133 133.036C143.012 128.53 140.656 121.566 141.066 112.143C141.066 110.3 142.09 109.378 144.138 109.378C144.958 109.378 145.777 109.686 146.596 110.3C147.211 110.71 147.416 111.427 147.211 112.451C147.006 119.825 148.85 125.253 152.741 128.735C156.633 132.012 161.139 133.651 166.26 133.651C170.357 133.651 174.453 132.729 178.55 130.885C182.647 128.837 186.026 125.97 188.689 122.283C189.304 121.463 190.123 121.054 191.147 121.054C192.171 121.054 193.093 121.566 193.912 122.59C194.732 123.614 194.629 124.741 193.605 125.97C190.328 130.476 186.231 133.958 181.315 136.416C176.399 138.669 171.381 139.796 166.26 139.796Z"/>
</mask>
<path d="M170.562 120.439C165.646 120.439 162.368 118.493 160.73 114.601C159.296 110.505 158.579 107.125 158.579 104.462C158.579 99.3416 160.32 93.2991 163.802 86.3348C167.284 79.3706 171.791 72.5088 177.321 65.7494C182.851 58.99 188.792 53.3571 195.141 48.8509C201.491 44.3446 207.534 42.0915 213.269 42.0915C216.136 42.0915 217.57 43.1156 217.57 45.1639C217.57 45.9833 217.263 46.8026 216.648 47.6219C216.034 48.2364 215.215 48.4412 214.19 48.2364C209.684 47.8267 204.563 49.6702 198.828 53.7668C193.298 57.6586 187.87 62.7793 182.544 69.1291C177.423 75.274 173.122 81.5213 169.64 87.8711C166.363 94.2208 164.724 99.7512 164.724 104.462C164.724 107.33 165.236 109.686 166.26 111.529C167.284 113.372 168.718 114.294 170.562 114.294C174.044 114.294 178.038 112.246 182.544 108.149C187.255 103.848 192.069 98.5223 196.985 92.1725C201.901 85.6179 206.612 78.8585 211.118 71.8943C215.829 64.7252 219.926 58.2731 223.408 52.5378C227.095 46.5978 229.86 42.1939 231.703 39.3263C235.595 33.591 239.487 29.5968 243.379 27.3437C247.271 24.8857 250.855 23.6567 254.132 23.6567C257.819 23.6567 260.789 24.7833 263.043 27.0364C265.5 29.2896 266.729 32.1572 266.729 35.6393C266.729 38.7118 265.603 41.9891 263.35 45.4712C261.711 47.9292 259.048 52.0258 255.361 57.761C251.674 63.2914 247.885 69.3339 243.993 75.8885C240.102 82.2382 236.824 88.0759 234.161 93.4015C231.294 99.5464 229.86 104.462 229.86 108.149C229.86 112.246 231.908 114.294 236.005 114.294C239.692 114.294 243.788 113.065 248.295 110.607C253.006 108.149 257.717 104.974 262.428 101.083C267.139 97.1909 271.543 93.1967 275.64 89.1001C279.736 84.7986 283.116 80.9068 285.779 77.4247C286.393 76.6054 287.11 76.1957 287.929 76.1957C289.158 76.1957 290.08 76.8102 290.695 78.0392C291.514 79.0634 291.514 80.0875 290.695 81.1117C288.032 85.0034 284.345 89.2025 279.634 93.7087C275.128 98.215 270.212 102.516 264.886 106.613C259.56 110.71 254.235 114.089 248.909 116.752C243.584 119.21 238.873 120.439 234.776 120.439C230.884 120.439 228.017 119.313 226.173 117.059C224.534 114.806 223.715 111.939 223.715 108.457C223.715 104.155 224.944 99.2392 227.402 93.7087C230.065 87.9735 233.342 81.7262 237.234 74.9668C241.331 68.0025 245.325 61.5504 249.216 55.6103C253.313 49.4654 256.386 44.8567 258.434 41.7842C259.868 39.7359 260.585 37.6876 260.585 35.6393C260.585 31.7475 258.536 29.8017 254.44 29.8017C252.187 29.8017 249.421 30.8258 246.144 32.8741C243.072 34.9224 239.897 38.3021 236.619 43.0132C232.113 49.7726 227.095 57.5562 221.564 66.3639C216.239 75.1716 210.811 83.4672 205.28 91.2508C199.75 98.8295 194.015 105.589 188.075 111.529C182.339 117.469 176.502 120.439 170.562 120.439ZM147.211 82.6479C146.187 82.6479 145.367 82.1358 144.753 81.1117C143.934 80.0875 143.934 78.9609 144.753 77.732C148.235 72.816 152.229 67.4904 156.736 61.7552C161.447 55.8151 166.67 50.2847 172.405 45.1639C178.14 39.8383 184.285 35.5369 190.84 32.2596C197.394 28.7775 204.256 27.0364 211.425 27.0364C213.678 27.0364 215.932 27.3437 218.185 27.9582C220.438 28.3678 222.589 28.9823 224.637 29.8017C225.866 30.4162 226.48 31.3379 226.48 32.5669C226.48 33.3862 226.071 34.2055 225.251 35.0248C224.432 35.6393 223.408 35.7417 222.179 35.3321C222.179 35.3321 221.872 35.2297 221.257 35.0248C220.643 34.82 219.823 34.6152 218.799 34.4103C217.775 34.0007 216.648 33.6934 215.419 33.4886C214.19 33.2838 212.859 33.1813 211.425 33.1813C203.027 33.1813 195.039 35.7417 187.46 40.8625C179.881 45.9833 172.815 52.2306 166.26 59.6045C159.91 66.9784 154.38 74.1474 149.669 81.1117C149.054 82.1358 148.235 82.6479 147.211 82.6479ZM224.944 140.103C215.727 140.103 209.07 137.645 204.973 132.729C201.081 127.608 199.135 122.078 199.135 116.138C199.135 111.222 200.364 106.511 202.822 102.004C203.437 100.98 204.359 100.468 205.588 100.468C206.612 100.468 207.431 100.98 208.046 102.004C208.865 102.824 208.967 103.848 208.353 105.077C206.305 108.764 205.28 112.451 205.28 116.138C205.28 120.644 206.817 124.741 209.889 128.427C212.962 132.114 217.98 133.958 224.944 133.958C232.728 133.958 240.102 132.319 247.066 129.042C254.235 125.56 260.994 121.463 267.344 116.752C267.754 116.343 268.368 116.138 269.187 116.138C271.236 116.138 272.26 117.162 272.26 119.21C272.26 120.234 271.85 121.054 271.031 121.668C264.476 126.584 257.41 130.885 249.831 134.572C242.252 138.259 233.957 140.103 224.944 140.103ZM166.26 139.796C159.501 139.796 153.458 137.542 148.133 133.036C143.012 128.53 140.656 121.566 141.066 112.143C141.066 110.3 142.09 109.378 144.138 109.378C144.958 109.378 145.777 109.686 146.596 110.3C147.211 110.71 147.416 111.427 147.211 112.451C147.006 119.825 148.85 125.253 152.741 128.735C156.633 132.012 161.139 133.651 166.26 133.651C170.357 133.651 174.453 132.729 178.55 130.885C182.647 128.837 186.026 125.97 188.689 122.283C189.304 121.463 190.123 121.054 191.147 121.054C192.171 121.054 193.093 121.566 193.912 122.59C194.732 123.614 194.629 124.741 193.605 125.97C190.328 130.476 186.231 133.958 181.315 136.416C176.399 138.669 171.381 139.796 166.26 139.796Z" stroke="white" stroke-width="8" mask="url(#path-3-inside-1_2108_266)"/>
<mask id="path-4-inside-2_2108_266" fill="white">
<path d="M29.5411 120.439C24.6252 120.439 21.3479 118.493 19.7092 114.601C18.2754 110.505 17.5585 107.125 17.5585 104.462C17.5585 99.3416 19.2996 93.2991 22.7817 86.3348C26.2638 79.3706 30.7701 72.5088 36.3005 65.7494C41.8309 58.99 47.771 53.3571 54.1207 48.8509C60.4705 44.3446 66.513 42.0915 72.2482 42.0915C75.1159 42.0915 76.5497 43.1156 76.5497 45.1639C76.5497 45.9833 76.2424 46.8026 75.6279 47.6219C75.0134 48.2364 74.1941 48.4412 73.17 48.2364C68.6637 47.8267 63.5429 49.6702 57.8077 53.7668C52.2773 57.6586 46.8493 62.7793 41.5237 69.1291C36.4029 75.274 32.1015 81.5213 28.6194 87.8711C25.3421 94.2208 23.7034 99.7512 23.7034 104.462C23.7034 107.33 24.2155 109.686 25.2397 111.529C26.2638 113.372 27.6976 114.294 29.5411 114.294C33.0232 114.294 37.0174 112.246 41.5237 108.149C46.2348 103.848 51.0483 98.5223 55.9642 92.1725C60.8801 85.6179 65.5912 78.8585 70.0975 71.8943C74.8086 64.7252 78.9052 58.2731 82.3873 52.5378C86.0743 46.5978 88.8395 42.1939 90.683 39.3263C94.5748 33.591 98.4665 29.5968 102.358 27.3437C106.25 24.8857 109.835 23.6567 113.112 23.6567C116.799 23.6567 119.769 24.7833 122.022 27.0364C124.48 29.2896 125.709 32.1572 125.709 35.6393C125.709 38.7118 124.582 41.9891 122.329 45.4712C120.691 47.9292 118.028 52.0258 114.341 57.761C110.654 63.2914 106.865 69.3339 102.973 75.8885C99.081 82.2382 95.8037 88.0759 93.1409 93.4015C90.2733 99.5464 88.8395 104.462 88.8395 108.149C88.8395 112.246 90.8878 114.294 94.9844 114.294C98.6714 114.294 102.768 113.065 107.274 110.607C111.985 108.149 116.696 104.974 121.408 101.083C126.119 97.1909 130.522 93.1967 134.619 89.1001C138.716 84.7986 142.095 80.9068 144.758 77.4247C145.373 76.6054 146.09 76.1957 146.909 76.1957C148.138 76.1957 149.06 76.8102 149.674 78.0392C150.493 79.0634 150.493 80.0875 149.674 81.1117C147.011 85.0034 143.324 89.2025 138.613 93.7087C134.107 98.215 129.191 102.516 123.866 106.613C118.54 110.71 113.214 114.089 107.889 116.752C102.563 119.21 97.852 120.439 93.7554 120.439C89.8637 120.439 86.996 119.313 85.1525 117.059C83.5139 114.806 82.6946 111.939 82.6946 108.457C82.6946 104.155 83.9236 99.2392 86.3815 93.7087C89.0443 87.9735 92.3216 81.7262 96.2134 74.9668C100.31 68.0025 104.304 61.5504 108.196 55.6103C112.293 49.4654 115.365 44.8567 117.413 41.7842C118.847 39.7359 119.564 37.6876 119.564 35.6393C119.564 31.7475 117.516 29.8017 113.419 29.8017C111.166 29.8017 108.401 30.8258 105.124 32.8741C102.051 34.9224 98.8762 38.3021 95.5989 43.0132C91.0926 49.7726 86.0743 57.5562 80.5439 66.3639C75.2183 75.1716 69.7903 83.4672 64.2598 91.2508C58.7294 98.8295 52.9942 105.589 47.0541 111.529C41.3188 117.469 35.4812 120.439 29.5411 120.439ZM6.19043 82.6479C5.16628 82.6479 4.34696 82.1358 3.73247 81.1117C2.91314 80.0875 2.91314 78.9609 3.73247 77.732C7.21458 72.816 11.2088 67.4904 15.715 61.7552C20.4261 55.8151 25.6493 50.2847 31.3846 45.1639C37.1198 39.8383 43.2647 35.5369 49.8193 32.2596C56.3739 28.7775 63.2357 27.0364 70.4048 27.0364C72.6579 27.0364 74.911 27.3437 77.1642 27.9582C79.4173 28.3678 81.568 28.9823 83.6163 29.8017C84.8453 30.4162 85.4598 31.3379 85.4598 32.5669C85.4598 33.3862 85.0501 34.2055 84.2308 35.0248C83.4115 35.6393 82.3873 35.7417 81.1584 35.3321C81.1584 35.3321 80.8511 35.2297 80.2366 35.0248C79.6221 34.82 78.8028 34.6152 77.7787 34.4103C76.7545 34.0007 75.6279 33.6934 74.399 33.4886C73.17 33.2838 71.8386 33.1813 70.4048 33.1813C62.0067 33.1813 54.0183 35.7417 46.4396 40.8625C38.8609 45.9833 31.7942 52.2306 25.2397 59.6045C18.8899 66.9784 13.3595 74.1474 8.6484 81.1117C8.0339 82.1358 7.21458 82.6479 6.19043 82.6479ZM83.9236 140.103C74.7062 140.103 68.0492 137.645 63.9526 132.729C60.0608 127.608 58.1149 122.078 58.1149 116.138C58.1149 111.222 59.3439 106.511 61.8019 102.004C62.4164 100.98 63.3381 100.468 64.5671 100.468C65.5913 100.468 66.4106 100.98 67.0251 102.004C67.8444 102.824 67.9468 103.848 67.3323 105.077C65.284 108.764 64.2598 112.451 64.2598 116.138C64.2598 120.644 65.7961 124.741 68.8685 128.427C71.941 132.114 76.9593 133.958 83.9236 133.958C91.7071 133.958 99.081 132.319 106.045 129.042C113.214 125.56 119.974 121.463 126.323 116.752C126.733 116.343 127.348 116.138 128.167 116.138C130.215 116.138 131.239 117.162 131.239 119.21C131.239 120.234 130.83 121.054 130.01 121.668C123.456 126.584 116.389 130.885 108.81 134.572C101.232 138.259 92.9361 140.103 83.9236 140.103ZM25.2397 139.796C18.4803 139.796 12.4378 137.542 7.11217 133.036C1.99141 128.53 -0.364143 121.566 0.0455179 112.143C0.0455179 110.3 1.06967 109.378 3.11797 109.378C3.9373 109.378 4.75662 109.686 5.57594 110.3C6.19043 110.71 6.39526 111.427 6.19043 112.451C5.9856 119.825 7.82907 125.253 11.7209 128.735C15.6126 132.012 20.1189 133.651 25.2397 133.651C29.3363 133.651 33.4329 132.729 37.5295 130.885C41.6261 128.837 45.0058 125.97 47.6686 122.283C48.2831 121.463 49.1024 121.054 50.1266 121.054C51.1507 121.054 52.0724 121.566 52.8918 122.59C53.7111 123.614 53.6087 124.741 52.5845 125.97C49.3072 130.476 45.2106 133.958 40.2947 136.416C35.3788 138.669 30.3604 139.796 25.2397 139.796Z"/>
</mask>
<path d="M29.5411 120.439C24.6252 120.439 21.3479 118.493 19.7092 114.601C18.2754 110.505 17.5585 107.125 17.5585 104.462C17.5585 99.3416 19.2996 93.2991 22.7817 86.3348C26.2638 79.3706 30.7701 72.5088 36.3005 65.7494C41.8309 58.99 47.771 53.3571 54.1207 48.8509C60.4705 44.3446 66.513 42.0915 72.2482 42.0915C75.1159 42.0915 76.5497 43.1156 76.5497 45.1639C76.5497 45.9833 76.2424 46.8026 75.6279 47.6219C75.0134 48.2364 74.1941 48.4412 73.17 48.2364C68.6637 47.8267 63.5429 49.6702 57.8077 53.7668C52.2773 57.6586 46.8493 62.7793 41.5237 69.1291C36.4029 75.274 32.1015 81.5213 28.6194 87.8711C25.3421 94.2208 23.7034 99.7512 23.7034 104.462C23.7034 107.33 24.2155 109.686 25.2397 111.529C26.2638 113.372 27.6976 114.294 29.5411 114.294C33.0232 114.294 37.0174 112.246 41.5237 108.149C46.2348 103.848 51.0483 98.5223 55.9642 92.1725C60.8801 85.6179 65.5912 78.8585 70.0975 71.8943C74.8086 64.7252 78.9052 58.2731 82.3873 52.5378C86.0743 46.5978 88.8395 42.1939 90.683 39.3263C94.5748 33.591 98.4665 29.5968 102.358 27.3437C106.25 24.8857 109.835 23.6567 113.112 23.6567C116.799 23.6567 119.769 24.7833 122.022 27.0364C124.48 29.2896 125.709 32.1572 125.709 35.6393C125.709 38.7118 124.582 41.9891 122.329 45.4712C120.691 47.9292 118.028 52.0258 114.341 57.761C110.654 63.2914 106.865 69.3339 102.973 75.8885C99.081 82.2382 95.8037 88.0759 93.1409 93.4015C90.2733 99.5464 88.8395 104.462 88.8395 108.149C88.8395 112.246 90.8878 114.294 94.9844 114.294C98.6714 114.294 102.768 113.065 107.274 110.607C111.985 108.149 116.696 104.974 121.408 101.083C126.119 97.1909 130.522 93.1967 134.619 89.1001C138.716 84.7986 142.095 80.9068 144.758 77.4247C145.373 76.6054 146.09 76.1957 146.909 76.1957C148.138 76.1957 149.06 76.8102 149.674 78.0392C150.493 79.0634 150.493 80.0875 149.674 81.1117C147.011 85.0034 143.324 89.2025 138.613 93.7087C134.107 98.215 129.191 102.516 123.866 106.613C118.54 110.71 113.214 114.089 107.889 116.752C102.563 119.21 97.852 120.439 93.7554 120.439C89.8637 120.439 86.996 119.313 85.1525 117.059C83.5139 114.806 82.6946 111.939 82.6946 108.457C82.6946 104.155 83.9236 99.2392 86.3815 93.7087C89.0443 87.9735 92.3216 81.7262 96.2134 74.9668C100.31 68.0025 104.304 61.5504 108.196 55.6103C112.293 49.4654 115.365 44.8567 117.413 41.7842C118.847 39.7359 119.564 37.6876 119.564 35.6393C119.564 31.7475 117.516 29.8017 113.419 29.8017C111.166 29.8017 108.401 30.8258 105.124 32.8741C102.051 34.9224 98.8762 38.3021 95.5989 43.0132C91.0926 49.7726 86.0743 57.5562 80.5439 66.3639C75.2183 75.1716 69.7903 83.4672 64.2598 91.2508C58.7294 98.8295 52.9942 105.589 47.0541 111.529C41.3188 117.469 35.4812 120.439 29.5411 120.439ZM6.19043 82.6479C5.16628 82.6479 4.34696 82.1358 3.73247 81.1117C2.91314 80.0875 2.91314 78.9609 3.73247 77.732C7.21458 72.816 11.2088 67.4904 15.715 61.7552C20.4261 55.8151 25.6493 50.2847 31.3846 45.1639C37.1198 39.8383 43.2647 35.5369 49.8193 32.2596C56.3739 28.7775 63.2357 27.0364 70.4048 27.0364C72.6579 27.0364 74.911 27.3437 77.1642 27.9582C79.4173 28.3678 81.568 28.9823 83.6163 29.8017C84.8453 30.4162 85.4598 31.3379 85.4598 32.5669C85.4598 33.3862 85.0501 34.2055 84.2308 35.0248C83.4115 35.6393 82.3873 35.7417 81.1584 35.3321C81.1584 35.3321 80.8511 35.2297 80.2366 35.0248C79.6221 34.82 78.8028 34.6152 77.7787 34.4103C76.7545 34.0007 75.6279 33.6934 74.399 33.4886C73.17 33.2838 71.8386 33.1813 70.4048 33.1813C62.0067 33.1813 54.0183 35.7417 46.4396 40.8625C38.8609 45.9833 31.7942 52.2306 25.2397 59.6045C18.8899 66.9784 13.3595 74.1474 8.6484 81.1117C8.0339 82.1358 7.21458 82.6479 6.19043 82.6479ZM83.9236 140.103C74.7062 140.103 68.0492 137.645 63.9526 132.729C60.0608 127.608 58.1149 122.078 58.1149 116.138C58.1149 111.222 59.3439 106.511 61.8019 102.004C62.4164 100.98 63.3381 100.468 64.5671 100.468C65.5913 100.468 66.4106 100.98 67.0251 102.004C67.8444 102.824 67.9468 103.848 67.3323 105.077C65.284 108.764 64.2598 112.451 64.2598 116.138C64.2598 120.644 65.7961 124.741 68.8685 128.427C71.941 132.114 76.9593 133.958 83.9236 133.958C91.7071 133.958 99.081 132.319 106.045 129.042C113.214 125.56 119.974 121.463 126.323 116.752C126.733 116.343 127.348 116.138 128.167 116.138C130.215 116.138 131.239 117.162 131.239 119.21C131.239 120.234 130.83 121.054 130.01 121.668C123.456 126.584 116.389 130.885 108.81 134.572C101.232 138.259 92.9361 140.103 83.9236 140.103ZM25.2397 139.796C18.4803 139.796 12.4378 137.542 7.11217 133.036C1.99141 128.53 -0.364143 121.566 0.0455179 112.143C0.0455179 110.3 1.06967 109.378 3.11797 109.378C3.9373 109.378 4.75662 109.686 5.57594 110.3C6.19043 110.71 6.39526 111.427 6.19043 112.451C5.9856 119.825 7.82907 125.253 11.7209 128.735C15.6126 132.012 20.1189 133.651 25.2397 133.651C29.3363 133.651 33.4329 132.729 37.5295 130.885C41.6261 128.837 45.0058 125.97 47.6686 122.283C48.2831 121.463 49.1024 121.054 50.1266 121.054C51.1507 121.054 52.0724 121.566 52.8918 122.59C53.7111 123.614 53.6087 124.741 52.5845 125.97C49.3072 130.476 45.2106 133.958 40.2947 136.416C35.3788 138.669 30.3604 139.796 25.2397 139.796Z" stroke="white" stroke-width="8" mask="url(#path-4-inside-2_2108_266)"/>
</svg>
