<svg width="151" height="117" viewBox="0 0 151 117" fill="none" xmlns="http://www.w3.org/2000/svg">
<mask id="path-1-inside-1_2111_285" fill="white">
<path d="M29.5411 96.7824C24.6252 96.7824 21.3479 94.8365 19.7092 90.9447C18.2754 86.8481 17.5585 83.4684 17.5585 80.8056C17.5585 75.6848 19.2996 69.6423 22.7817 62.6781C26.2638 55.7139 30.7701 48.8521 36.3005 42.0927C41.8309 35.3333 47.771 29.7004 54.1207 25.1941C60.4705 20.6879 66.513 18.4347 72.2482 18.4347C75.1159 18.4347 76.5497 19.4589 76.5497 21.5072C76.5497 22.3265 76.2424 23.1458 75.6279 23.9652C75.0134 24.5796 74.1941 24.7845 73.17 24.5796C68.6637 24.17 63.5429 26.0135 57.8077 30.1101C52.2773 34.0018 46.8493 39.1226 41.5237 45.4724C36.4029 51.6173 32.1015 57.8646 28.6194 64.2143C25.3421 70.5641 23.7034 76.0945 23.7034 80.8056C23.7034 83.6732 24.2155 86.0288 25.2397 87.8722C26.2638 89.7157 27.6976 90.6375 29.5411 90.6375C33.0232 90.6375 37.0174 88.5892 41.5237 84.4926C46.2348 80.1911 51.0483 74.8655 55.9642 68.5158C60.8801 61.9612 65.5912 55.2018 70.0975 48.2376C74.8086 41.0685 78.9052 34.6164 82.3873 28.8811C86.0743 22.941 88.8395 18.5372 90.683 15.6695C94.5748 9.93427 98.4665 5.94009 102.358 3.68695C106.25 1.22899 109.835 0 113.112 0C116.799 0 119.769 1.12656 122.022 3.37969C124.48 5.63282 125.709 8.50045 125.709 11.9826C125.709 15.055 124.582 18.3323 122.329 21.8144C120.691 24.2724 118.028 28.369 114.341 34.1043C110.654 39.6347 106.865 45.6772 102.973 52.2318C99.081 58.5815 95.8037 64.4192 93.1409 69.7448C90.2733 75.8897 88.8395 80.8056 88.8395 84.4926C88.8395 88.5892 90.8878 90.6375 94.9844 90.6375C98.6714 90.6375 102.768 89.4085 107.274 86.9505C111.985 84.4925 116.696 81.3177 121.408 77.4259C126.119 73.5341 130.522 69.5399 134.619 65.4433C138.716 61.1419 142.095 57.2501 144.758 53.768C145.373 52.9487 146.09 52.539 146.909 52.539C148.138 52.539 149.06 53.1535 149.674 54.3825C150.493 55.4066 150.493 56.4308 149.674 57.4549C147.011 61.3467 143.324 65.5457 138.613 70.052C134.107 74.5583 129.191 78.8597 123.866 82.9563C118.54 87.0529 113.214 90.4326 107.889 93.0954C102.563 95.5534 97.852 96.7824 93.7554 96.7824C89.8637 96.7824 86.996 95.6558 85.1525 93.4027C83.5139 91.1495 82.6946 88.2819 82.6946 84.7998C82.6946 80.4984 83.9236 75.5824 86.3815 70.052C89.0443 64.3167 92.3216 58.0694 96.2134 51.31C100.31 44.3458 104.304 37.8936 108.196 31.9536C112.293 25.8086 115.365 21.1999 117.413 18.1275C118.847 16.0792 119.564 14.0309 119.564 11.9826C119.564 8.09079 117.516 6.14492 113.419 6.14492C111.166 6.14492 108.401 7.16908 105.124 9.21738C102.051 11.2657 98.8762 14.6454 95.5989 19.3565C91.0926 26.1159 86.0743 33.8994 80.5439 42.7071C75.2183 51.5148 69.7903 59.8105 64.2598 67.594C58.7294 75.1728 52.9942 81.9322 47.0541 87.8722C41.3188 93.8123 35.4812 96.7824 29.5411 96.7824ZM6.19043 58.9911C5.16628 58.9911 4.34696 58.4791 3.73247 57.4549C2.91314 56.4308 2.91314 55.3042 3.73247 54.0752C7.21458 49.1593 11.2088 43.8337 15.715 38.0985C20.4261 32.1584 25.6493 26.628 31.3846 21.5072C37.1198 16.1816 43.2647 11.8802 49.8193 8.60288C56.3739 5.12076 63.2357 3.37969 70.4048 3.37969C72.6579 3.37969 74.911 3.68695 77.1642 4.30144C79.4173 4.7111 81.568 5.3256 83.6163 6.14492C84.8453 6.75941 85.4598 7.68114 85.4598 8.91012C85.4598 9.72944 85.0501 10.5488 84.2308 11.3681C83.4115 11.9826 82.3873 12.085 81.1584 11.6753C81.1584 11.6753 80.8511 11.5729 80.2366 11.3681C79.6221 11.1633 78.8028 10.9584 77.7787 10.7536C76.7545 10.3439 75.6279 10.0367 74.399 9.83186C73.17 9.62703 71.8386 9.5246 70.4048 9.5246C62.0067 9.5246 54.0183 12.085 46.4396 17.2058C38.8609 22.3265 31.7942 28.5739 25.2397 35.9478C18.8899 43.3216 13.3595 50.4907 8.6484 57.4549C8.0339 58.4791 7.21458 58.9911 6.19043 58.9911ZM83.9236 116.446C74.7062 116.446 68.0492 113.988 63.9526 109.072C60.0608 103.951 58.1149 98.421 58.1149 92.4809C58.1149 87.565 59.3439 82.8539 61.8019 78.3476C62.4164 77.3235 63.3381 76.8114 64.5671 76.8114C65.5913 76.8114 66.4106 77.3235 67.0251 78.3476C67.8444 79.1669 67.9468 80.1911 67.3323 81.4201C65.284 85.107 64.2598 88.794 64.2598 92.4809C64.2598 96.9872 65.7961 101.084 68.8685 104.771C71.941 108.458 76.9593 110.301 83.9236 110.301C91.7071 110.301 99.081 108.663 106.045 105.385C113.214 101.903 119.974 97.8065 126.323 93.0954C126.733 92.6858 127.348 92.4809 128.167 92.4809C130.215 92.4809 131.239 93.5051 131.239 95.5534C131.239 96.5775 130.83 97.3969 130.01 98.0114C123.456 102.927 116.389 107.229 108.81 110.916C101.232 114.603 92.9361 116.446 83.9236 116.446ZM25.2397 116.139C18.4803 116.139 12.4378 113.886 7.11217 109.379C1.99141 104.873 -0.364143 97.9089 0.0455179 88.4867C0.0455179 86.6433 1.06967 85.7215 3.11797 85.7215C3.9373 85.7215 4.75662 86.0288 5.57594 86.6433C6.19043 87.0529 6.39526 87.7698 6.19043 88.794C5.9856 96.1679 7.82907 101.596 11.7209 105.078C15.6126 108.355 20.1189 109.994 25.2397 109.994C29.3363 109.994 33.4329 109.072 37.5295 107.229C41.6261 105.18 45.0058 102.313 47.6686 98.6259C48.2831 97.8065 49.1024 97.3969 50.1266 97.3969C51.1507 97.3969 52.0724 97.9089 52.8918 98.9331C53.7111 99.9572 53.6087 101.084 52.5845 102.313C49.3072 106.819 45.2106 110.301 40.2947 112.759C35.3788 115.012 30.3604 116.139 25.2397 116.139Z"/>
</mask>
<path d="M29.5411 96.7824C24.6252 96.7824 21.3479 94.8365 19.7092 90.9447C18.2754 86.8481 17.5585 83.4684 17.5585 80.8056C17.5585 75.6848 19.2996 69.6423 22.7817 62.6781C26.2638 55.7139 30.7701 48.8521 36.3005 42.0927C41.8309 35.3333 47.771 29.7004 54.1207 25.1941C60.4705 20.6879 66.513 18.4347 72.2482 18.4347C75.1159 18.4347 76.5497 19.4589 76.5497 21.5072C76.5497 22.3265 76.2424 23.1458 75.6279 23.9652C75.0134 24.5796 74.1941 24.7845 73.17 24.5796C68.6637 24.17 63.5429 26.0135 57.8077 30.1101C52.2773 34.0018 46.8493 39.1226 41.5237 45.4724C36.4029 51.6173 32.1015 57.8646 28.6194 64.2143C25.3421 70.5641 23.7034 76.0945 23.7034 80.8056C23.7034 83.6732 24.2155 86.0288 25.2397 87.8722C26.2638 89.7157 27.6976 90.6375 29.5411 90.6375C33.0232 90.6375 37.0174 88.5892 41.5237 84.4926C46.2348 80.1911 51.0483 74.8655 55.9642 68.5158C60.8801 61.9612 65.5912 55.2018 70.0975 48.2376C74.8086 41.0685 78.9052 34.6164 82.3873 28.8811C86.0743 22.941 88.8395 18.5372 90.683 15.6695C94.5748 9.93427 98.4665 5.94009 102.358 3.68695C106.25 1.22899 109.835 0 113.112 0C116.799 0 119.769 1.12656 122.022 3.37969C124.48 5.63282 125.709 8.50045 125.709 11.9826C125.709 15.055 124.582 18.3323 122.329 21.8144C120.691 24.2724 118.028 28.369 114.341 34.1043C110.654 39.6347 106.865 45.6772 102.973 52.2318C99.081 58.5815 95.8037 64.4192 93.1409 69.7448C90.2733 75.8897 88.8395 80.8056 88.8395 84.4926C88.8395 88.5892 90.8878 90.6375 94.9844 90.6375C98.6714 90.6375 102.768 89.4085 107.274 86.9505C111.985 84.4925 116.696 81.3177 121.408 77.4259C126.119 73.5341 130.522 69.5399 134.619 65.4433C138.716 61.1419 142.095 57.2501 144.758 53.768C145.373 52.9487 146.09 52.539 146.909 52.539C148.138 52.539 149.06 53.1535 149.674 54.3825C150.493 55.4066 150.493 56.4308 149.674 57.4549C147.011 61.3467 143.324 65.5457 138.613 70.052C134.107 74.5583 129.191 78.8597 123.866 82.9563C118.54 87.0529 113.214 90.4326 107.889 93.0954C102.563 95.5534 97.852 96.7824 93.7554 96.7824C89.8637 96.7824 86.996 95.6558 85.1525 93.4027C83.5139 91.1495 82.6946 88.2819 82.6946 84.7998C82.6946 80.4984 83.9236 75.5824 86.3815 70.052C89.0443 64.3167 92.3216 58.0694 96.2134 51.31C100.31 44.3458 104.304 37.8936 108.196 31.9536C112.293 25.8086 115.365 21.1999 117.413 18.1275C118.847 16.0792 119.564 14.0309 119.564 11.9826C119.564 8.09079 117.516 6.14492 113.419 6.14492C111.166 6.14492 108.401 7.16908 105.124 9.21738C102.051 11.2657 98.8762 14.6454 95.5989 19.3565C91.0926 26.1159 86.0743 33.8994 80.5439 42.7071C75.2183 51.5148 69.7903 59.8105 64.2598 67.594C58.7294 75.1728 52.9942 81.9322 47.0541 87.8722C41.3188 93.8123 35.4812 96.7824 29.5411 96.7824ZM6.19043 58.9911C5.16628 58.9911 4.34696 58.4791 3.73247 57.4549C2.91314 56.4308 2.91314 55.3042 3.73247 54.0752C7.21458 49.1593 11.2088 43.8337 15.715 38.0985C20.4261 32.1584 25.6493 26.628 31.3846 21.5072C37.1198 16.1816 43.2647 11.8802 49.8193 8.60288C56.3739 5.12076 63.2357 3.37969 70.4048 3.37969C72.6579 3.37969 74.911 3.68695 77.1642 4.30144C79.4173 4.7111 81.568 5.3256 83.6163 6.14492C84.8453 6.75941 85.4598 7.68114 85.4598 8.91012C85.4598 9.72944 85.0501 10.5488 84.2308 11.3681C83.4115 11.9826 82.3873 12.085 81.1584 11.6753C81.1584 11.6753 80.8511 11.5729 80.2366 11.3681C79.6221 11.1633 78.8028 10.9584 77.7787 10.7536C76.7545 10.3439 75.6279 10.0367 74.399 9.83186C73.17 9.62703 71.8386 9.5246 70.4048 9.5246C62.0067 9.5246 54.0183 12.085 46.4396 17.2058C38.8609 22.3265 31.7942 28.5739 25.2397 35.9478C18.8899 43.3216 13.3595 50.4907 8.6484 57.4549C8.0339 58.4791 7.21458 58.9911 6.19043 58.9911ZM83.9236 116.446C74.7062 116.446 68.0492 113.988 63.9526 109.072C60.0608 103.951 58.1149 98.421 58.1149 92.4809C58.1149 87.565 59.3439 82.8539 61.8019 78.3476C62.4164 77.3235 63.3381 76.8114 64.5671 76.8114C65.5913 76.8114 66.4106 77.3235 67.0251 78.3476C67.8444 79.1669 67.9468 80.1911 67.3323 81.4201C65.284 85.107 64.2598 88.794 64.2598 92.4809C64.2598 96.9872 65.7961 101.084 68.8685 104.771C71.941 108.458 76.9593 110.301 83.9236 110.301C91.7071 110.301 99.081 108.663 106.045 105.385C113.214 101.903 119.974 97.8065 126.323 93.0954C126.733 92.6858 127.348 92.4809 128.167 92.4809C130.215 92.4809 131.239 93.5051 131.239 95.5534C131.239 96.5775 130.83 97.3969 130.01 98.0114C123.456 102.927 116.389 107.229 108.81 110.916C101.232 114.603 92.9361 116.446 83.9236 116.446ZM25.2397 116.139C18.4803 116.139 12.4378 113.886 7.11217 109.379C1.99141 104.873 -0.364143 97.9089 0.0455179 88.4867C0.0455179 86.6433 1.06967 85.7215 3.11797 85.7215C3.9373 85.7215 4.75662 86.0288 5.57594 86.6433C6.19043 87.0529 6.39526 87.7698 6.19043 88.794C5.9856 96.1679 7.82907 101.596 11.7209 105.078C15.6126 108.355 20.1189 109.994 25.2397 109.994C29.3363 109.994 33.4329 109.072 37.5295 107.229C41.6261 105.18 45.0058 102.313 47.6686 98.6259C48.2831 97.8065 49.1024 97.3969 50.1266 97.3969C51.1507 97.3969 52.0724 97.9089 52.8918 98.9331C53.7111 99.9572 53.6087 101.084 52.5845 102.313C49.3072 106.819 45.2106 110.301 40.2947 112.759C35.3788 115.012 30.3604 116.139 25.2397 116.139Z" stroke="white" stroke-width="8" mask="url(#path-1-inside-1_2111_285)"/>
</svg>
